<svg width="271" height="56" viewBox="0 0 271 56" fill="none" xmlns="http://www.w3.org/2000/svg">
<rect width="13.6865" height="14.2054" transform="matrix(0.999976 0.00694553 0.013141 0.999914 0.955627 40.6641)" fill="white"/>
<rect width="13.6263" height="13.5067" transform="matrix(0.999976 0.00694553 0.013141 0.999914 0.388763 14.0381)" fill="#D9D9D9"/>
<path fill-rule="evenodd" clip-rule="evenodd" d="M27.4605 0.721986L41.0865 0.816628L41.0865 0.817746L54.7115 0.912381L54.889 14.4174L54.8903 14.4174L55.0672 27.8842L55.069 27.8842L55.2465 41.3897L41.6206 41.2951L41.4436 27.8284L41.4427 27.8284L41.4427 27.8285L27.8168 27.7339L27.6393 14.2283L41.2631 14.3229L41.2631 14.3222L27.6389 14.2275L27.6389 14.2277L14.0138 14.1331L14.0138 14.1332L0.387884 14.0386L0.210392 0.533033L13.8355 0.627668L13.8355 0.627509L27.4605 0.722145L27.4605 0.721986ZM55.2477 41.3905L41.6218 41.2959L41.7993 54.8014L55.4252 54.8961L55.2477 41.3905Z" fill="#F5F2F2"/>
<rect width="13.6263" height="13.5067" transform="matrix(0.999976 0.00694553 0.013141 0.999914 14.0138 14.1323)" fill="#D9D9D9"/>
<rect width="13.6263" height="13.5067" transform="matrix(0.999976 0.00694553 0.013141 0.999914 14.1926 27.6387)" fill="white"/>
<rect width="13.6522" height="13.5067" transform="matrix(0.999976 0.00694553 0.013141 0.999914 27.8177 27.7334)" fill="#D9D9D9"/>
<rect width="13.6661" height="13.5067" transform="matrix(0.999976 0.00694553 0.013141 0.999914 27.9913 41.2012)" fill="#D9D9D9"/>
<path d="M269.946 39.1052H261.961C261.919 38.6127 261.746 38.1883 261.442 37.8321C261.138 37.4758 260.745 37.2033 260.263 37.0147C259.792 36.8156 259.268 36.716 258.691 36.716C257.947 36.716 257.308 36.8523 256.774 37.1247C256.239 37.3972 255.977 37.7849 255.988 38.2879C255.977 38.6442 256.129 38.9743 256.444 39.2781C256.769 39.582 257.392 39.8178 258.314 39.9855L263.218 40.8657C265.691 41.3163 267.53 42.076 268.736 43.1449C269.951 44.2033 270.564 45.6232 270.575 47.4046C270.564 49.1232 270.051 50.6164 269.034 51.8844C268.028 53.1418 266.65 54.1164 264.9 54.808C263.161 55.4891 261.175 55.8297 258.943 55.8297C255.254 55.8297 252.367 55.0752 250.282 53.5662C248.207 52.0573 247.049 50.0663 246.808 47.5932H255.422C255.537 48.3582 255.915 48.9503 256.554 49.3694C257.203 49.7781 258.021 49.9824 259.006 49.9824C259.802 49.9824 260.457 49.8462 260.971 49.5738C261.495 49.3013 261.762 48.9136 261.772 48.4106C261.762 47.9495 261.531 47.5827 261.081 47.3103C260.641 47.0378 259.949 46.8178 259.006 46.6501L254.73 45.8956C252.268 45.466 250.424 44.6486 249.197 43.4435C247.971 42.2385 247.364 40.6876 247.374 38.7909C247.364 37.1142 247.804 35.6943 248.695 34.5312C249.596 33.3575 250.879 32.4668 252.546 31.859C254.222 31.2408 256.208 30.9316 258.503 30.9316C261.992 30.9316 264.743 31.6547 266.755 33.1008C268.777 34.5469 269.841 36.5484 269.946 39.1052Z" fill="white"/>
<path d="M219.221 55.3902V23.1987H227.898V35.4591H228.023C228.338 34.6418 228.799 33.8925 229.407 33.2114C230.014 32.5198 230.769 31.9696 231.67 31.561C232.571 31.1418 233.619 30.9322 234.814 30.9322C236.407 30.9322 237.921 31.3566 239.357 32.2054C240.803 33.0542 241.976 34.3903 242.877 36.2136C243.789 38.037 244.245 40.4052 244.245 43.3184C244.245 46.1058 243.81 48.4164 242.94 50.2502C242.081 52.0841 240.928 53.4516 239.482 54.3528C238.047 55.2539 236.47 55.7045 234.751 55.7045C233.619 55.7045 232.608 55.5212 231.717 55.1544C230.837 54.7772 230.083 54.2689 229.454 53.6297C228.836 52.98 228.359 52.2465 228.023 51.4291H227.835V55.3902H219.221ZM227.709 43.3184C227.709 44.492 227.861 45.5085 228.165 46.3678C228.479 47.2166 228.919 47.8767 229.485 48.3483C230.062 48.8094 230.748 49.0399 231.544 49.0399C232.341 49.0399 233.017 48.8146 233.572 48.364C234.138 47.9029 234.568 47.248 234.861 46.3992C235.165 45.5399 235.317 44.513 235.317 43.3184C235.317 42.1238 235.165 41.1021 234.861 40.2533C234.568 39.394 234.138 38.7391 233.572 38.2885C233.017 37.8274 232.341 37.5969 231.544 37.5969C230.748 37.5969 230.062 37.8274 229.485 38.2885C228.919 38.7391 228.479 39.394 228.165 40.2533C227.861 41.1021 227.709 42.1238 227.709 43.3184Z" fill="white"/>
<path d="M199.922 55.7668C198.382 55.7668 197.019 55.5153 195.835 55.0123C194.662 54.4989 193.74 53.7234 193.069 52.686C192.398 51.6486 192.063 50.3282 192.063 48.725C192.063 47.4046 192.288 46.2781 192.739 45.3455C193.189 44.4024 193.818 43.6322 194.625 43.0349C195.432 42.4376 196.37 41.9817 197.439 41.6674C198.518 41.353 199.681 41.1487 200.928 41.0543C202.28 40.9496 203.364 40.8238 204.182 40.6771C205.01 40.5199 205.607 40.3051 205.974 40.0326C206.34 39.7497 206.524 39.3777 206.524 38.9166V38.8538C206.524 38.225 206.283 37.743 205.801 37.4077C205.319 37.0723 204.701 36.9047 203.946 36.9047C203.118 36.9047 202.442 37.088 201.918 37.4548C201.405 37.8111 201.096 38.3612 200.991 39.1052H193.006C193.111 37.6382 193.577 36.2864 194.405 35.0499C195.243 33.8029 196.464 32.8074 198.067 32.0634C199.671 31.3089 201.672 30.9316 204.072 30.9316C205.801 30.9316 207.352 31.136 208.724 31.5447C210.097 31.9429 211.266 32.5035 212.23 33.2265C213.194 33.9391 213.927 34.7774 214.43 35.7415C214.944 36.6951 215.2 37.7325 215.2 38.8538V55.3896H207.09V51.9944H206.901C206.419 52.8956 205.832 53.6239 205.141 54.1793C204.46 54.7347 203.679 55.1381 202.799 55.3896C201.929 55.6411 200.97 55.7668 199.922 55.7668ZM202.751 50.2968C203.412 50.2968 204.03 50.1606 204.606 49.8881C205.193 49.6157 205.67 49.2227 206.037 48.7092C206.403 48.1958 206.587 47.5723 206.587 46.8387V44.8268C206.356 44.9211 206.11 45.0102 205.848 45.094C205.596 45.1778 205.324 45.2564 205.031 45.3298C204.748 45.4031 204.444 45.4712 204.119 45.5341C203.805 45.597 203.474 45.6546 203.129 45.707C202.458 45.8118 201.908 45.9847 201.478 46.2257C201.059 46.4563 200.745 46.7444 200.535 47.0902C200.336 47.4256 200.236 47.8028 200.236 48.222C200.236 48.8926 200.472 49.4061 200.944 49.7624C201.415 50.1187 202.018 50.2968 202.751 50.2968Z" fill="white"/>
<path d="M167.785 55.3902V23.1987H176.524V48.3483H189.539V55.3902H167.785Z" fill="white"/>
<path d="M141.607 55.83C139.009 55.83 136.687 55.4265 134.644 54.6197C132.611 53.8128 131.008 52.7177 129.834 51.3345C128.671 49.9513 128.089 48.3899 128.089 46.6504C128.089 45.3196 128.42 44.104 129.08 43.0037C129.75 41.9034 130.652 40.9917 131.783 40.2687C132.915 39.5352 134.178 39.0636 135.571 38.854V38.6025C133.738 38.2882 132.229 37.476 131.044 36.1662C129.871 34.8458 129.284 33.2897 129.284 31.4978C129.284 29.8107 129.818 28.3122 130.887 27.0023C131.956 25.6819 133.418 24.6445 135.273 23.89C137.128 23.1355 139.239 22.7583 141.607 22.7583C143.976 22.7583 146.087 23.1408 147.942 23.9058C149.797 24.6602 151.258 25.6977 152.327 27.018C153.396 28.3279 153.931 29.8211 153.931 31.4978C153.931 33.3002 153.333 34.8563 152.139 36.1662C150.944 37.476 149.446 38.2882 147.643 38.6025V38.854C149.026 39.0636 150.284 39.5352 151.416 40.2687C152.547 40.9917 153.449 41.9034 154.119 43.0037C154.79 44.104 155.125 45.3196 155.125 46.6504C155.125 48.3899 154.538 49.9513 153.365 51.3345C152.202 52.7177 150.598 53.8128 148.555 54.6197C146.522 55.4265 144.206 55.83 141.607 55.83ZM141.607 49.7941C142.435 49.7941 143.169 49.6264 143.808 49.2911C144.447 48.9558 144.95 48.4947 145.317 47.9079C145.694 47.3106 145.883 46.6399 145.883 45.8959C145.883 45.1519 145.694 44.4917 145.317 43.9154C144.95 43.339 144.447 42.8884 143.808 42.5636C143.169 42.2283 142.435 42.0606 141.607 42.0606C140.79 42.0606 140.056 42.2283 139.407 42.5636C138.767 42.8884 138.259 43.339 137.882 43.9154C137.515 44.4917 137.332 45.1519 137.332 45.8959C137.332 46.6399 137.515 47.3053 137.882 47.8921C138.259 48.479 138.767 48.9453 139.407 49.2911C140.056 49.6264 140.79 49.7941 141.607 49.7941ZM141.607 36.0247C142.341 36.0247 142.991 35.8728 143.556 35.5689C144.122 35.265 144.568 34.8458 144.892 34.3114C145.217 33.777 145.38 33.1744 145.38 32.5038C145.38 31.8331 145.217 31.241 144.892 30.7276C144.568 30.2036 144.122 29.7949 143.556 29.5015C142.991 29.1976 142.341 29.0457 141.607 29.0457C140.884 29.0457 140.235 29.1976 139.658 29.5015C139.092 29.7949 138.647 30.2036 138.322 30.7276C137.997 31.241 137.835 31.8331 137.835 32.5038C137.835 33.1744 137.997 33.777 138.322 34.3114C138.647 34.8353 139.092 35.2545 139.658 35.5689C140.235 35.8728 140.884 36.0247 141.607 36.0247Z" fill="white"/>
<path d="M97.0756 50.3603V43.5699L110.028 23.1987H116.189V32.2526H112.668L105.689 43.3184V43.5699H124.803V50.3603H97.0756ZM112.731 55.3902V48.2854L112.92 45.3304V23.1987H121.093V55.3902H112.731Z" fill="white"/>
<path d="M69.4634 55.3899V49.1025L81.4723 39.1684C82.2687 38.5082 82.9499 37.89 83.5157 37.3136C84.0921 36.7268 84.5322 36.1242 84.8361 35.506C85.1505 34.8877 85.3076 34.2014 85.3076 33.4469C85.3076 32.619 85.1295 31.9117 84.7732 31.3249C84.4274 30.738 83.9454 30.2875 83.3271 29.9731C82.7089 29.6482 81.9963 29.4858 81.1894 29.4858C80.3825 29.4858 79.67 29.6482 79.0517 29.9731C78.4439 30.2979 77.9724 30.7747 77.637 31.4035C77.3017 32.0322 77.134 32.7972 77.134 33.6984H68.8347C68.8347 31.4349 69.3429 29.4858 70.3594 27.8511C71.3758 26.2164 72.8115 24.9589 74.6662 24.0787C76.521 23.1984 78.6954 22.7583 81.1894 22.7583C83.7672 22.7583 85.9993 23.1722 87.8855 24.0001C89.7822 24.8174 91.244 25.9701 92.2709 27.4581C93.3084 28.9461 93.8271 30.6909 93.8271 32.6924C93.8271 33.9289 93.5703 35.1602 93.0569 36.3862C92.5434 37.6018 91.6212 38.9483 90.2904 40.4259C88.9596 41.9034 87.0681 43.6639 84.616 45.7073L81.5981 48.2222V48.4109H94.1729V55.3899H69.4634Z" fill="white"/>
</svg>
