<svg width="122" height="74" viewBox="0 0 122 74" fill="none" xmlns="http://www.w3.org/2000/svg">
<g clip-path="url(#clip0_2003_679)">
<path d="M75.2523 2.60673C74.7898 4.66695 74.7057 8.03059 74.7898 17.5329L74.8739 29.8522H77.8171H80.7603V31.534V33.2158H82.5682C84.1239 33.2158 84.5864 32.9635 86.016 31.534C87.6137 29.8942 87.7398 29.8522 90.4307 29.8522H93.1637L98.3353 24.6806L103.465 19.551V9.75445V-9.15527e-05H89.6739H75.883L75.2523 2.60673ZM101.363 10.3851V18.2476L98.966 20.476L96.5694 22.7045H92.9535H89.3376L86.983 24.8067L84.5864 26.951L84.4603 24.9329L84.3341 22.9147L81.3069 22.7885L78.2376 22.6624V12.6135V2.52263H89.8001H101.363V10.3851Z" fill="#CBCBCB"/>
<path d="M86.5201 8.70343C86.352 8.82957 86.2258 10.5534 86.2258 12.4875C86.2258 15.9352 86.2258 15.9773 87.277 15.9773C88.3281 15.9773 88.3281 15.9352 88.3281 12.1932C88.3281 8.78752 88.244 8.40911 87.5713 8.40911C87.1508 8.40911 86.6463 8.53525 86.5201 8.70343Z" fill="#CBCBCB"/>
<path d="M94.0885 8.70343C93.9203 8.82957 93.7942 10.5534 93.7942 12.4875C93.7942 15.9352 93.7942 15.9773 94.8453 15.9773C95.8965 15.9773 95.8965 15.9352 95.8965 12.1932C95.8965 8.78752 95.8124 8.40911 95.1396 8.40911C94.7192 8.40911 94.2146 8.53525 94.0885 8.70343Z" fill="#CBCBCB"/>
<path d="M0.874268 47.9739V61.4704L3.73336 64.4136C5.28904 66.0534 6.92881 67.525 7.39131 67.7352C7.85381 67.9454 8.82086 68.492 9.49359 68.9545C10.2084 69.417 11.1334 69.9636 11.5959 70.2159C12.0584 70.4682 13.0254 71.0148 13.6981 71.4773C16.7674 73.4534 17.314 73.5795 21.7709 73.5795C25.1345 73.5795 26.1015 73.4534 26.1015 72.9909C26.1015 72.3602 28.0356 72.5284 28.4561 73.2011C28.5822 73.4114 32.6186 73.5795 37.4538 73.5795H46.2413L47.755 72.0239C48.5538 71.1829 49.3106 70.5943 49.4368 70.7204C49.5629 70.8466 49.7311 71.5193 49.7731 72.2761L49.8572 73.6216L55.1129 73.4954L60.3686 73.3693L60.4947 71.9818C60.6209 70.5523 61.672 70.0898 62.0924 71.267C62.2186 71.6034 62.9754 72.2761 63.7322 72.7386C64.8675 73.4534 65.7924 73.5795 69.5765 73.5795C74.2436 73.5795 74.3697 73.5375 74.622 71.6454C74.7902 70.4261 75.4629 70.5523 76.9765 72.1079L78.4061 73.5795H84.1243H89.8425L91.272 72.1079C92.8277 70.4682 93.3743 70.5523 93.3743 72.3602V73.5795H96.2754C98.5038 73.5795 99.3868 73.4114 100.228 72.7386C100.816 72.2761 101.405 71.8977 101.573 71.8977C101.699 71.8977 102.12 71.6034 102.456 71.267C103.549 70.1739 104.138 70.5102 103.97 72.1079L103.802 73.5795H107.291H110.781L115.953 70.1739L121.124 66.7261V56.8034V46.8807L117.845 43.6011L114.607 40.3636H110.949H107.291L107.165 37.5045L107.039 34.6875L100.732 34.5614L94.4254 34.4773L91.4822 37.4204L88.5811 40.3636H85.0913H81.6436L80.0038 42.1295C78.1118 44.1057 77.2288 44.0216 77.4811 41.7932L77.6493 40.3636H74.5799H71.5527L71.4265 37.5045L71.3004 34.6875H59.9481H48.5959L48.4697 37.5045L48.3436 40.3636H34.1743H19.9629L17.0618 37.4204L14.1606 34.4773H7.51745H0.874268V47.9739ZM11.4697 39.817L11.5959 42.6761L14.6652 42.8023L17.6924 42.9284V46.8807V50.8329L14.6652 50.9591L11.5959 51.0852L11.4697 54.1125L11.3436 57.1398L14.4129 57.2659L17.4822 57.392L17.6084 61.2602L17.7345 65.1704H12.9834H8.27427L5.83563 62.7739L3.39699 60.3773V48.6886V37H7.39131H11.3436L11.4697 39.817ZM58.897 38.6818V40.3636H54.9027H50.9084V38.6818V37H54.9027H58.897V38.6818ZM69.4084 39.9432V42.8864H72.3515H75.2947V46.8807V50.875H72.3515H69.4084V54.0284V57.1818H72.3515H75.2947V61.1761V65.1704H70.7959H66.297L63.6481 62.5636L60.9993 59.9568V48.4784V37H65.2038H69.4084V39.9432ZM104.811 39.817L104.937 42.6761L109.141 42.8023L113.346 42.9284L115.995 45.5352L118.602 48.1V56.6352V65.1704H114.607H110.613L110.529 58.1068L110.403 51.0852H107.67H104.937L104.811 58.1068L104.727 65.1704H100.732H96.7379V51.0852V37H100.732H104.684L104.811 39.817ZM27.8675 49.9079L27.9936 56.9716H29.0447H30.0959L30.222 49.9079L30.3061 42.8864H34.3004H38.2947V50.0341V57.1818H39.3459H40.397V50.0341V42.8864H44.3913H48.3856V51.8V60.7136L46.1993 62.942L44.0129 65.1704H31.9038H19.7947V54.0284V42.8864H23.789H27.7834L27.8675 49.9079ZM58.897 54.0284V65.1704H54.9027H50.9084V54.0284V42.8864H54.9027H58.897V54.0284ZM94.6356 46.8807V50.875H90.2209H85.8061V54.0284V57.1398L90.1368 57.2659L94.4254 57.392L94.5515 61.3023L94.6777 65.1704H88.4129H82.1481L79.7936 62.6898L77.397 60.167V53.9864V47.8057L79.8356 45.325L82.3163 42.8864H88.4549H94.6356V46.8807Z" fill="#CBCBCB"/>
<path d="M81.9383 33.5104C82.4429 33.5945 83.1997 33.5945 83.6201 33.5104C83.9985 33.3843 83.5781 33.3002 82.6531 33.3422C81.7281 33.3422 81.3917 33.4263 81.9383 33.5104Z" fill="#CBCBCB"/>
<path d="M58.6029 38.682C58.6029 39.7331 58.687 40.1536 58.7711 39.607C58.8552 39.1025 58.8552 38.2615 58.7711 37.715C58.687 37.2104 58.6029 37.6309 58.6029 38.682Z" fill="#CBCBCB"/>
<path d="M61.1674 48.5626C61.1674 55.0376 61.2514 57.6444 61.2935 54.3228C61.3776 51.0012 61.3776 45.7035 61.2935 42.5501C61.2514 39.3967 61.1674 42.0876 61.1674 48.5626Z" fill="#CBCBCB"/>
<path d="M96.9056 50.8751C96.9056 58.6114 96.9897 61.8069 97.0318 57.8967C97.1159 54.0285 97.1159 47.7217 97.0318 43.8114C96.9897 39.9433 96.9056 43.1387 96.9056 50.8751Z" fill="#CBCBCB"/>
<path d="M118.602 44.2318C120.326 46.1238 120.705 46.4602 120.705 46.1238C120.705 46.0398 119.822 45.1568 118.728 44.1477L116.71 42.2557L118.602 44.2318Z" fill="#CBCBCB"/>
<path d="M17.4407 46.8809C17.4407 48.9411 17.4827 49.8661 17.5668 48.899C17.6509 47.932 17.6509 46.2081 17.5668 45.1149C17.4827 44.0218 17.4407 44.7786 17.4407 46.8809Z" fill="#CBCBCB"/>
<path d="M19.9642 54.0285C19.9642 60.041 20.0483 62.4376 20.0904 59.3682C20.1745 56.2989 20.1745 51.3796 20.0904 48.4364C20.0483 45.4932 19.9642 48.016 19.9642 54.0285Z" fill="#CBCBCB"/>
<path d="M38.0844 50.3285V57.3921H39.3458H40.6071V50.3285L40.6492 43.3069L40.523 50.2444L40.3969 57.1819H39.3458H38.2946L38.1685 50.2444L38.0424 43.3069L38.0844 50.3285Z" fill="#CBCBCB"/>
<path d="M58.6459 54.2388C58.6459 60.3774 58.73 62.8581 58.772 59.7888C58.8561 56.7615 58.8561 51.7161 58.772 48.6467C58.73 45.6195 58.6459 48.1001 58.6459 54.2388Z" fill="#CBCBCB"/>
<path d="M94.3842 46.8809C94.3842 48.9411 94.4262 49.8661 94.5103 48.899C94.5944 47.932 94.5944 46.2081 94.5103 45.1149C94.4262 44.0218 94.3842 44.7786 94.3842 46.8809Z" fill="#CBCBCB"/>
<path d="M14.2024 57.4761L17.2297 57.6443L17.3979 61.1761L17.524 64.75V61.092L17.482 57.392L14.3286 57.35L11.1752 57.308L14.2024 57.4761Z" fill="#CBCBCB"/>
<path d="M70.5441 57.4762C71.3009 57.5603 72.6464 57.5603 73.4873 57.4762C74.3702 57.3921 73.7816 57.3081 72.1418 57.3081C70.5441 57.3081 69.8293 57.3921 70.5441 57.4762Z" fill="#CBCBCB"/>
<path d="M89.8857 57.4761L94.1743 57.6443L94.3425 61.1761L94.4686 64.75V61.092L94.4266 57.392L90.0118 57.35H85.597L89.8857 57.4761Z" fill="#CBCBCB"/>
<path d="M5.71012 62.6477C7.09762 64.0352 8.31693 65.1704 8.40102 65.1704C8.52716 65.1704 7.51807 64.0352 6.13057 62.6477C4.74307 61.2602 3.52375 60.125 3.43966 60.125C3.31352 60.125 4.32262 61.2602 5.71012 62.6477Z" fill="#CBCBCB"/>
<path d="M76.5571 72.108C77.356 72.9069 78.0708 73.5796 78.1969 73.5796C78.323 73.5796 77.7764 72.9069 76.9776 72.108C76.1787 71.3091 75.4639 70.6364 75.3378 70.6364C75.2117 70.6364 75.7583 71.3091 76.5571 72.108Z" fill="#CBCBCB"/>
<path d="M19.7115 73.8739C20.9308 73.958 22.8229 73.958 23.9161 73.8739C25.0093 73.7899 24.0002 73.7478 21.6877 73.7478C19.3752 73.7478 18.4922 73.7899 19.7115 73.8739Z" fill="#CBCBCB"/>
<path d="M33.5867 73.8739C35.9832 73.958 39.7673 73.958 41.9957 73.8739C44.2242 73.8319 42.2901 73.7478 37.6651 73.7478C33.0401 73.7478 31.1901 73.8319 33.5867 73.8739Z" fill="#CBCBCB"/>
<path d="M52.296 73.8739C53.8516 73.958 56.3323 73.958 57.7619 73.8739C59.1914 73.7899 57.93 73.7478 54.9028 73.7478C51.9175 73.7478 50.7403 73.7899 52.296 73.8739Z" fill="#CBCBCB"/>
<path d="M67.4336 73.8739C68.737 73.958 70.9234 73.958 72.2689 73.8739C73.5723 73.7899 72.4791 73.7478 69.8302 73.7478C67.1814 73.7478 66.0882 73.7899 67.4336 73.8739Z" fill="#CBCBCB"/>
<path d="M81.5187 73.8739C82.9483 73.958 85.3028 73.958 86.7744 73.8739C88.204 73.7899 87.0267 73.7478 84.1256 73.7478C81.2244 73.7478 80.0472 73.7899 81.5187 73.8739Z" fill="#CBCBCB"/>
<path d="M94.7616 73.8739C95.6025 73.958 97.0321 73.958 97.915 73.8739C98.756 73.7899 98.0412 73.7058 96.3173 73.7058C94.5935 73.7058 93.8787 73.7899 94.7616 73.8739Z" fill="#CBCBCB"/>
<path d="M105.695 73.8739C106.788 73.958 108.512 73.958 109.479 73.8739C110.446 73.7899 109.563 73.7478 107.461 73.7478C105.4 73.7478 104.601 73.7899 105.695 73.8739Z" fill="#CBCBCB"/>
</g>
<defs>
<clipPath id="clip0_2003_679">
<rect width="120.25" height="74" fill="white" transform="translate(0.87439)"/>
</clipPath>
</defs>
</svg>
