<svg width="121" height="74" viewBox="0 0 121 74" fill="none" xmlns="http://www.w3.org/2000/svg">
<g clip-path="url(#clip0_2003_536)">
<path d="M75.0494 2.60673C74.5869 4.66695 74.5028 8.03059 74.5869 17.5329L74.671 29.8522H77.6142H80.5573V31.534V33.2158H82.3653C83.921 33.2158 84.3835 32.9635 85.813 31.534C87.4108 29.8942 87.5369 29.8522 90.2278 29.8522H92.9608L98.1323 24.6806L103.262 19.551V9.75445V-9.15527e-05H89.471H75.6801L75.0494 2.60673ZM101.16 10.3851V18.2476L98.763 20.476L96.3664 22.7045H92.7505H89.1346L86.7801 24.8067L84.3835 26.951L84.2573 24.9329L84.1312 22.9147L81.1039 22.7885L78.0346 22.6624V12.6135V2.52263H89.5971H101.16V10.3851Z" fill="#CBCBCB"/>
<path d="M86.3171 8.70343C86.1489 8.82957 86.0228 10.5534 86.0228 12.4875C86.0228 15.9352 86.0228 15.9773 87.0739 15.9773C88.125 15.9773 88.125 15.9352 88.125 12.1932C88.125 8.78752 88.0409 8.40911 87.3682 8.40911C86.9478 8.40911 86.4432 8.53525 86.3171 8.70343Z" fill="#CBCBCB"/>
<path d="M93.8854 8.70343C93.7173 8.82957 93.5911 10.5534 93.5911 12.4875C93.5911 15.9352 93.5911 15.9773 94.6423 15.9773C95.6934 15.9773 95.6934 15.9352 95.6934 12.1932C95.6934 8.78752 95.6093 8.40911 94.9366 8.40911C94.5161 8.40911 94.0116 8.53525 93.8854 8.70343Z" fill="#CBCBCB"/>
<path d="M0.671204 47.9739V61.4704L3.53029 64.4136C5.08598 66.0534 6.72575 67.525 7.18825 67.7352C7.65075 67.9454 8.61779 68.492 9.29052 68.9545C10.0053 69.417 10.9303 69.9636 11.3928 70.2159C11.8553 70.4682 12.8223 71.0148 13.4951 71.4773C16.5644 73.4534 17.111 73.5795 21.5678 73.5795C24.9314 73.5795 25.8985 73.4534 25.8985 72.9909C25.8985 72.3602 27.8326 72.5284 28.253 73.2011C28.3792 73.4114 32.4155 73.5795 37.2508 73.5795H46.0382L47.5519 72.0239C48.3507 71.1829 49.1076 70.5943 49.2337 70.7204C49.3598 70.8466 49.528 71.5193 49.5701 72.2761L49.6542 73.6216L54.9098 73.4954L60.1655 73.3693L60.2917 71.9818C60.4178 70.5523 61.4689 70.0898 61.8894 71.267C62.0155 71.6034 62.7723 72.2761 63.5292 72.7386C64.6644 73.4534 65.5894 73.5795 69.3735 73.5795C74.0405 73.5795 74.1667 73.5375 74.4189 71.6454C74.5871 70.4261 75.2598 70.5523 76.7735 72.1079L78.203 73.5795H83.9212H89.6394L91.0689 72.1079C92.6246 70.4682 93.1712 70.5523 93.1712 72.3602V73.5795H96.0723C98.3008 73.5795 99.1837 73.4114 100.025 72.7386C100.613 72.2761 101.202 71.8977 101.37 71.8977C101.496 71.8977 101.917 71.6034 102.253 71.267C103.346 70.1739 103.935 70.5102 103.767 72.1079L103.598 73.5795H107.088H110.578L115.75 70.1739L120.921 66.7261V56.8034V46.8807L117.642 43.6011L114.404 40.3636H110.746H107.088L106.962 37.5045L106.836 34.6875L100.529 34.5614L94.2223 34.4773L91.2792 37.4204L88.378 40.3636H84.8883H81.4405L79.8008 42.1295C77.9087 44.1057 77.0257 44.0216 77.278 41.7932L77.4462 40.3636H74.3769H71.3496L71.2235 37.5045L71.0973 34.6875H59.7451H48.3928L48.2667 37.5045L48.1405 40.3636H33.9712H19.7598L16.8587 37.4204L13.9576 34.4773H7.31439H0.671204V47.9739ZM11.2667 39.817L11.3928 42.6761L14.4621 42.8023L17.4894 42.9284V46.8807V50.8329L14.4621 50.9591L11.3928 51.0852L11.2667 54.1125L11.1405 57.1398L14.2098 57.2659L17.2792 57.392L17.4053 61.2602L17.5314 65.1704H12.7803H8.0712L5.63257 62.7739L3.19393 60.3773V48.6886V37H7.18825H11.1405L11.2667 39.817ZM58.6939 38.6818V40.3636H54.6996H50.7053V38.6818V37H54.6996H58.6939V38.6818ZM69.2053 39.9432V42.8864H72.1485H75.0917V46.8807V50.875H72.1485H69.2053V54.0284V57.1818H72.1485H75.0917V61.1761V65.1704H70.5928H66.0939L63.4451 62.5636L60.7962 59.9568V48.4784V37H65.0007H69.2053V39.9432ZM104.608 39.817L104.734 42.6761L108.938 42.8023L113.143 42.9284L115.792 45.5352L118.398 48.1V56.6352V65.1704H114.404H110.41L110.326 58.1068L110.2 51.0852H107.467H104.734L104.608 58.1068L104.523 65.1704H100.529H96.5348V51.0852V37H100.529H104.481L104.608 39.817ZM27.6644 49.9079L27.7905 56.9716H28.8417H29.8928L30.0189 49.9079L30.103 42.8864H34.0973H38.0917V50.0341V57.1818H39.1428H40.1939V50.0341V42.8864H44.1883H48.1826V51.8V60.7136L45.9962 62.942L43.8098 65.1704H31.7008H19.5917V54.0284V42.8864H23.586H27.5803L27.6644 49.9079ZM58.6939 54.0284V65.1704H54.6996H50.7053V54.0284V42.8864H54.6996H58.6939V54.0284ZM94.4326 46.8807V50.875H90.0178H85.603V54.0284V57.1398L89.9337 57.2659L94.2223 57.392L94.3485 61.3023L94.4746 65.1704H88.2098H81.9451L79.5905 62.6898L77.1939 60.167V53.9864V47.8057L79.6326 45.325L82.1133 42.8864H88.2519H94.4326V46.8807Z" fill="#CBCBCB"/>
<path d="M81.7351 33.5104C82.2396 33.5945 82.9964 33.5945 83.4169 33.5104C83.7953 33.3843 83.3748 33.3002 82.4498 33.3422C81.5248 33.3422 81.1885 33.4263 81.7351 33.5104Z" fill="#CBCBCB"/>
<path d="M58.3997 38.682C58.3997 39.7331 58.4837 40.1536 58.5678 39.607C58.6519 39.1025 58.6519 38.2615 58.5678 37.715C58.4837 37.2104 58.3997 37.6309 58.3997 38.682Z" fill="#CBCBCB"/>
<path d="M60.964 48.5626C60.964 55.0376 61.0481 57.6444 61.0902 54.3228C61.1742 51.0012 61.1742 45.7035 61.0902 42.5501C61.0481 39.3967 60.964 42.0876 60.964 48.5626Z" fill="#CBCBCB"/>
<path d="M96.7023 50.8751C96.7023 58.6114 96.7864 61.8069 96.8284 57.8967C96.9125 54.0285 96.9125 47.7217 96.8284 43.8114C96.7864 39.9433 96.7023 43.1387 96.7023 50.8751Z" fill="#CBCBCB"/>
<path d="M118.399 44.2318C120.123 46.1238 120.501 46.4602 120.501 46.1238C120.501 46.0398 119.618 45.1568 118.525 44.1477L116.507 42.2557L118.399 44.2318Z" fill="#CBCBCB"/>
<path d="M17.2374 46.8809C17.2374 48.9411 17.2794 49.8661 17.3635 48.899C17.4476 47.932 17.4476 46.2081 17.3635 45.1149C17.2794 44.0218 17.2374 44.7786 17.2374 46.8809Z" fill="#CBCBCB"/>
<path d="M19.7609 54.0285C19.7609 60.041 19.845 62.4376 19.887 59.3682C19.9711 56.2989 19.9711 51.3796 19.887 48.4364C19.845 45.4932 19.7609 48.016 19.7609 54.0285Z" fill="#CBCBCB"/>
<path d="M37.8811 50.3285V57.3921H39.1424H40.4038V50.3285L40.4458 43.3069L40.3197 50.2444L40.1936 57.1819H39.1424H38.0913L37.9652 50.2444L37.839 43.3069L37.8811 50.3285Z" fill="#CBCBCB"/>
<path d="M58.4425 54.2388C58.4425 60.3774 58.5266 62.8581 58.5687 59.7888C58.6528 56.7615 58.6528 51.7161 58.5687 48.6467C58.5266 45.6195 58.4425 48.1001 58.4425 54.2388Z" fill="#CBCBCB"/>
<path d="M94.1808 46.8809C94.1808 48.9411 94.2228 49.8661 94.3069 48.899C94.391 47.932 94.391 46.2081 94.3069 45.1149C94.2228 44.0218 94.1808 44.7786 94.1808 46.8809Z" fill="#CBCBCB"/>
<path d="M13.9991 57.4761L17.0264 57.6443L17.1946 61.1761L17.3207 64.75V61.092L17.2787 57.392L14.1252 57.35L10.9718 57.308L13.9991 57.4761Z" fill="#CBCBCB"/>
<path d="M70.3408 57.4762C71.0976 57.5603 72.4431 57.5603 73.284 57.4762C74.167 57.3921 73.5783 57.3081 71.9386 57.3081C70.3408 57.3081 69.6261 57.3921 70.3408 57.4762Z" fill="#CBCBCB"/>
<path d="M89.6823 57.4761L93.971 57.6443L94.1392 61.1761L94.2653 64.75V61.092L94.2233 57.392L89.8085 57.35H85.3937L89.6823 57.4761Z" fill="#CBCBCB"/>
<path d="M5.50684 62.6477C6.89434 64.0352 8.11366 65.1704 8.19775 65.1704C8.32388 65.1704 7.31479 64.0352 5.92729 62.6477C4.53979 61.2602 3.32047 60.125 3.23638 60.125C3.11025 60.125 4.11934 61.2602 5.50684 62.6477Z" fill="#CBCBCB"/>
<path d="M76.3538 72.108C77.1526 72.9069 77.8674 73.5796 77.9936 73.5796C78.1197 73.5796 77.5731 72.9069 76.7742 72.108C75.9754 71.3091 75.2606 70.6364 75.1345 70.6364C75.0083 70.6364 75.5549 71.3091 76.3538 72.108Z" fill="#CBCBCB"/>
<path d="M19.5082 73.8739C20.7275 73.958 22.6195 73.958 23.7127 73.8739C24.8059 73.7899 23.7968 73.7478 21.4843 73.7478C19.1718 73.7478 18.2889 73.7899 19.5082 73.8739Z" fill="#CBCBCB"/>
<path d="M33.3833 73.8739C35.7799 73.958 39.564 73.958 41.7924 73.8739C44.0208 73.8319 42.0867 73.7478 37.4617 73.7478C32.8367 73.7478 30.9867 73.8319 33.3833 73.8739Z" fill="#CBCBCB"/>
<path d="M52.0926 73.8739C53.6483 73.958 56.129 73.958 57.5585 73.8739C58.9881 73.7899 57.7267 73.7478 54.6994 73.7478C51.7142 73.7478 50.5369 73.7899 52.0926 73.8739Z" fill="#CBCBCB"/>
<path d="M67.2303 73.8739C68.5337 73.958 70.7201 73.958 72.0655 73.8739C73.3689 73.7899 72.2757 73.7478 69.6269 73.7478C66.978 73.7478 65.8848 73.7899 67.2303 73.8739Z" fill="#CBCBCB"/>
<path d="M81.3154 73.8739C82.745 73.958 85.0995 73.958 86.5711 73.8739C88.0006 73.7899 86.8234 73.7478 83.9222 73.7478C81.0211 73.7478 79.8438 73.7899 81.3154 73.8739Z" fill="#CBCBCB"/>
<path d="M94.5583 73.8739C95.3992 73.958 96.8288 73.958 97.7117 73.8739C98.5526 73.7899 97.8378 73.7058 96.114 73.7058C94.3901 73.7058 93.6753 73.7899 94.5583 73.8739Z" fill="#CBCBCB"/>
<path d="M105.491 73.8739C106.584 73.958 108.308 73.958 109.275 73.8739C110.242 73.7899 109.359 73.7478 107.257 73.7478C105.197 73.7478 104.398 73.7899 105.491 73.8739Z" fill="#CBCBCB"/>
</g>
<defs>
<clipPath id="clip0_2003_536">
<rect width="120.25" height="74" fill="white" transform="translate(0.671051)"/>
</clipPath>
</defs>
</svg>
